<svg width="221" height="60" viewBox="0 0 221 60" fill="none" xmlns="http://www.w3.org/2000/svg">
<rect y="4.18604" width="6.72576" height="55.814" rx="3.36288" fill="#9440FF"/>
<rect x="26.9031" y="4.18604" width="6.72576" height="55.814" rx="3.36288" fill="#9440FF"/>
<rect x="53.8062" y="4.18604" width="6.72576" height="55.814" rx="3.36288" fill="#9440FF"/>
<rect x="13.4515" width="6.72576" height="55.814" rx="3.36288" fill="#1E2772"/>
<rect x="40.3546" width="6.72576" height="55.814" rx="3.36288" fill="#1E2772"/>
<path d="M89.4938 44.0691L84.1818 34.9491H80.6618V44.0691H77.7498V21.7651H84.9498C86.6351 21.7651 88.0538 22.0531 89.2058 22.6291C90.3791 23.2051 91.2538 23.9838 91.8298 24.9651C92.4058 25.9464 92.6938 27.0664 92.6938 28.3251C92.6938 29.8611 92.2458 31.2158 91.3498 32.3891C90.4751 33.5624 89.1524 34.3411 87.3818 34.7251L92.9818 44.0691H89.4938ZM80.6618 32.6131H84.9498C86.5284 32.6131 87.7124 32.2291 88.5018 31.4611C89.2911 30.6718 89.6858 29.6264 89.6858 28.3251C89.6858 27.0024 89.2911 25.9784 88.5018 25.2531C87.7338 24.5278 86.5498 24.1651 84.9498 24.1651H80.6618V32.6131ZM96.1305 35.2371C96.1305 33.4451 96.4932 31.8771 97.2185 30.5331C97.9439 29.1678 98.9359 28.1118 100.195 27.3651C101.475 26.6184 102.893 26.2451 104.451 26.2451C105.987 26.2451 107.32 26.5758 108.451 27.2371C109.581 27.8984 110.424 28.7304 110.979 29.7331V26.5331H113.923V44.0691H110.979V40.8051C110.403 41.8291 109.539 42.6824 108.387 43.3651C107.256 44.0264 105.933 44.3571 104.419 44.3571C102.861 44.3571 101.453 43.9731 100.195 43.2051C98.9359 42.4371 97.9439 41.3598 97.2185 39.9731C96.4932 38.5864 96.1305 37.0078 96.1305 35.2371ZM110.979 35.2691C110.979 33.9464 110.712 32.7944 110.179 31.8131C109.645 30.8318 108.92 30.0851 108.003 29.5731C107.107 29.0398 106.115 28.7731 105.027 28.7731C103.939 28.7731 102.947 29.0291 102.051 29.5411C101.155 30.0531 100.44 30.7998 99.9065 31.7811C99.3732 32.7624 99.1065 33.9144 99.1065 35.2371C99.1065 36.5811 99.3732 37.7544 99.9065 38.7571C100.44 39.7384 101.155 40.4958 102.051 41.0291C102.947 41.5411 103.939 41.7971 105.027 41.7971C106.115 41.7971 107.107 41.5411 108.003 41.0291C108.92 40.4958 109.645 39.7384 110.179 38.7571C110.712 37.7544 110.979 36.5918 110.979 35.2691ZM139.932 26.2131C141.297 26.2131 142.513 26.5011 143.58 27.0771C144.646 27.6318 145.489 28.4744 146.108 29.6051C146.726 30.7358 147.036 32.1118 147.036 33.7331V44.0691H144.156V34.1491C144.156 32.3998 143.718 31.0664 142.844 30.1491C141.99 29.2104 140.828 28.7411 139.356 28.7411C137.841 28.7411 136.636 29.2318 135.74 30.2131C134.844 31.1731 134.396 32.5704 134.396 34.4051V44.0691H131.516V34.1491C131.516 32.3998 131.078 31.0664 130.204 30.1491C129.35 29.2104 128.188 28.7411 126.716 28.7411C125.201 28.7411 123.996 29.2318 123.1 30.2131C122.204 31.1731 121.756 32.5704 121.756 34.4051V44.0691H118.844V26.5331H121.756V29.0611C122.332 28.1438 123.1 27.4398 124.06 26.9491C125.041 26.4584 126.118 26.2131 127.292 26.2131C128.764 26.2131 130.065 26.5438 131.196 27.2051C132.326 27.8664 133.169 28.8371 133.724 30.1171C134.214 28.8798 135.025 27.9198 136.156 27.2371C137.286 26.5544 138.545 26.2131 139.932 26.2131ZM152.74 44.2611C152.186 44.2611 151.716 44.0691 151.332 43.6851C150.948 43.3011 150.756 42.8318 150.756 42.2771C150.756 41.7224 150.948 41.2531 151.332 40.8691C151.716 40.4851 152.186 40.2931 152.74 40.2931C153.274 40.2931 153.722 40.4851 154.084 40.8691C154.468 41.2531 154.66 41.7224 154.66 42.2771C154.66 42.8318 154.468 43.3011 154.084 43.6851C153.722 44.0691 153.274 44.2611 152.74 44.2611ZM157.443 35.2371C157.443 33.4451 157.806 31.8771 158.531 30.5331C159.256 29.1678 160.248 28.1118 161.507 27.3651C162.787 26.6184 164.206 26.2451 165.763 26.2451C167.299 26.2451 168.632 26.5758 169.763 27.2371C170.894 27.8984 171.736 28.7304 172.291 29.7331V26.5331H175.235V44.0691H172.291V40.8051C171.715 41.8291 170.851 42.6824 169.699 43.3651C168.568 44.0264 167.246 44.3571 165.731 44.3571C164.174 44.3571 162.766 43.9731 161.507 43.2051C160.248 42.4371 159.256 41.3598 158.531 39.9731C157.806 38.5864 157.443 37.0078 157.443 35.2371ZM172.291 35.2691C172.291 33.9464 172.024 32.7944 171.491 31.8131C170.958 30.8318 170.232 30.0851 169.315 29.5731C168.419 29.0398 167.427 28.7731 166.339 28.7731C165.251 28.7731 164.259 29.0291 163.363 29.5411C162.467 30.0531 161.752 30.7998 161.219 31.7811C160.686 32.7624 160.419 33.9144 160.419 35.2371C160.419 36.5811 160.686 37.7544 161.219 38.7571C161.752 39.7384 162.467 40.4958 163.363 41.0291C164.259 41.5411 165.251 41.7971 166.339 41.7971C167.427 41.7971 168.419 41.5411 169.315 41.0291C170.232 40.4958 170.958 39.7384 171.491 38.7571C172.024 37.7544 172.291 36.5918 172.291 35.2691ZM183.068 20.3891V44.0691H180.156V20.3891H183.068ZM190.943 20.3891V44.0691H188.031V20.3891H190.943ZM199.682 21.7651L199.33 37.7651H196.898L196.546 21.7651H199.682ZM198.242 44.2611C197.687 44.2611 197.218 44.0691 196.834 43.6851C196.45 43.3011 196.258 42.8318 196.258 42.2771C196.258 41.7224 196.45 41.2531 196.834 40.8691C197.218 40.4851 197.687 40.2931 198.242 40.2931C198.775 40.2931 199.223 40.4851 199.586 40.8691C199.97 41.2531 200.162 41.7224 200.162 42.2771C200.162 42.8318 199.97 43.3011 199.586 43.6851C199.223 44.0691 198.775 44.2611 198.242 44.2611Z" fill="black"/>
</svg>
